Coordinates
version=1
nRows=16
nColumns=63
inDegrees=yes

Units are S.I. units (second, meters, Newtons, ...)
If the header above contains a line with 'inDegrees', this indicates whether rotational values are in degrees (yes) or radians (no).

endheader
time	pelvis_tilt	pelvis_list	pelvis_rotation	pelvis_tx	pelvis_ty	pelvis_tz	hip_flexion_r	hip_adduction_r	hip_rotation_r	knee_angle_r	knee_angle_r_beta	ankle_angle_r	subtalar_angle_r	mtp_angle_r	hip_flexion_l	hip_adduction_l	hip_rotation_l	knee_angle_l	knee_angle_l_beta	ankle_angle_l	subtalar_angle_l	mtp_angle_l	L5_S1_Flex_Ext	L5_S1_Lat_Bending	L5_S1_axial_rotation	L4_L5_Flex_Ext	L4_L5_Lat_Bending	L4_L5_axial_rotation	L3_L4_Flex_Ext	L3_L4_Lat_Bending	L3_L4_axial_rotation	L2_L3_Flex_Ext	L2_L3_Lat_Bending	L2_L3_axial_rotation	L1_L2_Flex_Ext	L1_L2_Lat_Bending	L1_L2_axial_rotation	L1_T12_Flex_Ext	L1_T12_Lat_Bending	L1_T12_axial_rotation	Abs_r3	Abs_r2	Abs_r1	Abs_t1	Abs_t2	neck_flexion	neck_bending	neck_rotation	arm_flex_r	arm_add_r	arm_rot_r	elbow_flex_r	pro_sup_r	wrist_flex_r	wrist_dev_r	arm_flex_l	arm_add_l	arm_rot_l	elbow_flex_l	pro_sup_l	wrist_flex_l	wrist_dev_l
2.898305	0.637538	-4.417213	89.784305	0.253480	0.982604	0.447417	6.368234	2.347007	1.840492	2.207075	0.038521	17.445687	-11.525309	0.000000	5.389318	-2.203690	-11.293516	1.353062	0.023615	22.084320	11.328914	0.000000	0.181644	-0.125109	0.560595	0.337331	-0.166395	0.595632	0.298423	-0.304190	0.595632	0.207601	-0.304190	0.490521	0.168675	-0.255122	0.455483	0.103791	-0.193794	0.420446	1.297465	-1.415257	3.117861	0.000000	0.000000	27.931115	3.143590	-10.950465	23.352342	-8.210529	5.220149	138.055536	81.371012	-13.807556	6.884942	-9.703649	-15.159675	-6.738575	53.225528	76.344257	-33.590246	-3.481054
2.915254	0.477844	-4.205357	89.085392	0.254437	0.982515	0.445688	5.661725	2.246914	2.901650	1.654393	0.028875	17.846239	-10.930774	0.000000	4.786190	-2.080252	-12.153249	1.178226	0.020564	22.010172	11.318637	0.000000	0.226248	-0.147472	0.824427	0.420165	-0.196138	0.875954	0.371702	-0.358564	0.875954	0.258579	-0.358564	0.721373	0.210094	-0.300725	0.669847	0.129278	-0.228434	0.618320	1.616065	-1.668235	4.585215	0.000000	0.000000	28.294475	2.655683	-10.695723	18.856011	-9.250420	3.926104	136.276945	78.181076	-13.316880	7.919976	-8.661577	-15.329119	-5.519116	52.747767	77.210642	-35.839117	-1.414056
2.932203	0.371690	-4.021146	88.310701	0.255273	0.982317	0.444272	5.089931	2.181202	3.962189	1.254345	0.021892	18.285043	-10.321414	0.000000	4.235605	-2.000993	-13.017017	1.017719	0.017763	21.984034	11.291363	0.000000	0.269164	-0.158850	1.079771	0.499864	-0.211271	1.147257	0.442209	-0.386228	1.147257	0.307627	-0.386228	0.944800	0.249945	-0.323927	0.877314	0.153800	-0.246059	0.809828	1.922610	-1.796945	6.005362	0.000000	0.000000	28.509986	2.292600	-10.150540	14.628013	-10.370624	2.786137	133.818915	75.214559	-12.836315	8.495638	-7.589409	-15.359793	-4.579444	52.201284	78.286243	-37.885481	0.346171
2.949153	0.326358	-3.864458	87.492566	0.255953	0.982019	0.443248	4.656905	2.157736	4.991201	1.005442	0.017548	18.720262	-9.720765	0.000000	3.752441	-1.973114	-13.827750	0.875592	0.015282	21.993666	11.217204	0.000000	0.308889	-0.158391	1.310574	0.573638	-0.210659	1.392485	0.507474	-0.385111	1.392485	0.353030	-0.385111	1.146752	0.286835	-0.322990	1.064841	0.176499	-0.245347	0.982930	2.206365	-1.791746	7.289018	0.000000	0.000000	28.592421	2.081774	-9.283749	10.830830	-11.510262	1.861797	130.607240	72.793494	-12.469321	8.475736	-6.542010	-15.254826	-3.967970	51.624019	79.502632	-39.574100	1.619578
2.966102	0.335530	-3.731798	86.650326	0.256466	0.981642	0.442676	4.357021	2.176702	5.962546	0.899168	0.015693	19.105541	-9.138418	0.000000	3.340444	-1.995335	-14.565606	0.752255	0.013129	22.033056	11.089201	0.000000	0.343158	-0.147458	1.505649	0.637278	-0.196119	1.599752	0.563774	-0.358529	1.599752	0.392195	-0.358529	1.317443	0.318656	-0.300696	1.223340	0.196080	-0.228412	1.129237	2.451141	-1.668070	8.373970	0.000000	0.000000	28.569110	2.031802	-8.136937	7.570702	-12.600891	1.179861	126.664932	70.995890	-12.263114	7.952042	-5.580403	-15.023919	-3.728178	51.086597	80.840754	-40.824004	2.287100
2.983051	0.392345	-3.624098	85.834501	0.256779	0.981211	0.442593	4.180240	2.234529	6.895451	0.913789	0.015949	19.372050	-8.697127	0.000000	3.012911	-2.062268	-15.233885	0.652361	0.011386	22.098988	10.966951	0.000000	0.370628	-0.127600	1.651636	0.688293	-0.169708	1.754863	0.608905	-0.310246	1.754863	0.423591	-0.310246	1.445181	0.344165	-0.260201	1.341954	0.211777	-0.197652	1.238727	2.647358	-1.443433	9.185903	0.000000	0.000000	28.484582	2.140025	-6.755068	4.920818	-13.584970	0.765715	122.074981	69.828221	-12.246674	7.155283	-4.760674	-14.674097	-3.893505	50.661109	82.187700	-41.513976	2.271704
3.000000	0.486392	-3.544971	85.105825	0.256872	0.980754	0.443005	4.127682	2.320404	7.671607	1.045560	0.018248	19.520994	-8.328322	0.000000	2.781659	-2.163130	-15.740148	0.575964	0.010052	22.176276	10.789388	0.000000	0.390391	-0.100657	1.737157	0.724995	-0.133874	1.845729	0.641373	-0.244737	1.845729	0.446178	-0.244737	1.520012	0.362517	-0.205260	1.411440	0.223069	-0.155918	1.302867	2.788523	-1.138652	9.661544	0.000000	0.000000	28.381527	2.494167	-5.068694	2.936833	-14.409539	0.623048	116.941054	69.293005	-12.396054	6.326063	-4.141577	-14.231387	-4.444720	50.466005	83.395224	-41.670819	1.683697
3.016949	0.603166	-3.514828	84.488312	0.256761	0.980274	0.443893	4.210457	2.425658	8.319869	1.272484	0.022209	19.544032	-8.084254	0.000000	2.671430	-2.286450	-16.098449	0.525219	0.009167	22.265679	10.589409	0.000000	0.404741	-0.069065	1.770040	0.751644	-0.091857	1.880668	0.664948	-0.167926	1.880668	0.462578	-0.167926	1.548785	0.375842	-0.140838	1.438158	0.231269	-0.106982	1.327530	2.891021	-0.781282	9.844433	0.000000	0.000000	28.311716	3.008514	-3.222418	1.641482	-15.076542	0.730046	111.413746	69.340675	-12.682913	5.666429	-3.720227	-13.757290	-5.215310	50.583724	84.316128	-41.442198	0.697630
3.033898	0.736136	-3.538200	84.028162	0.256408	0.979796	0.445165	4.412575	2.539328	8.799826	1.560348	0.027233	19.448762	-7.948079	0.000000	2.687446	-2.420333	-16.312441	0.495442	0.008647	22.376608	10.399519	0.000000	0.415375	-0.033955	1.757912	0.771392	-0.045161	1.867781	0.682419	-0.082559	1.867781	0.474732	-0.082559	1.538173	0.385717	-0.069242	1.428303	0.237345	-0.052597	1.318434	2.966980	-0.384110	9.776979	0.000000	0.000000	28.283440	3.619888	-1.318643	1.007756	-15.610673	1.052928	105.633497	69.914913	-13.089853	5.201533	-3.447395	-13.321422	-5.992321	51.076112	84.937628	-40.996080	-0.423730
3.050847	0.879166	-3.621632	83.753226	0.255797	0.979327	0.446716	4.723151	2.654704	9.140170	1.885236	0.032904	19.269565	-7.959332	0.000000	2.831672	-2.556559	-16.391286	0.479234	0.008364	22.523483	10.275892	0.000000	0.425331	0.003486	1.716236	0.789882	0.004637	1.823500	0.698776	0.008477	1.823500	0.486110	0.008477	1.501706	0.394962	0.007109	1.394441	0.243034	0.005400	1.287177	3.038095	0.039439	9.545187	0.000000	0.000000	28.278197	4.209166	0.473554	0.953138	-16.066922	1.542623	99.738479	70.995331	-13.546349	4.904044	-3.197985	-12.982243	-6.520861	51.918504	85.314471	-40.388415	-1.422413
3.067797	1.033558	-3.762201	83.693878	0.254871	0.978866	0.448504	5.129833	2.756221	9.194025	2.237967	0.039060	19.078914	-7.911052	0.000000	3.100350	-2.688382	-16.271481	0.468885	0.008184	22.689547	10.154001	0.000000	0.435006	0.044049	1.652657	0.807851	0.058585	1.755948	0.714672	0.107101	1.755948	0.497169	0.107101	1.446075	0.403947	0.089825	1.342784	0.248563	0.068232	1.239493	3.107208	0.498291	9.191583	0.000000	0.000000	28.281767	4.750021	2.184337	1.414468	-16.516426	2.301635	93.837102	72.533612	-14.061351	4.709511	-2.820451	-12.761754	-6.581006	53.010338	85.511039	-39.565542	-2.184052
3.084746	1.198267	-3.951980	83.837462	0.253630	0.978396	0.450478	5.618995	2.840914	8.999843	2.617019	0.045676	18.903400	-7.820811	0.000000	3.478408	-2.813995	-15.987949	0.460871	0.008044	22.873836	10.062396	0.000000	0.444661	0.087162	1.579327	0.825779	0.115925	1.678035	0.730533	0.211926	1.678035	0.508203	0.211926	1.381911	0.412912	0.177741	1.283203	0.254079	0.135014	1.184495	3.176167	0.985993	8.783743	0.000000	0.000000	28.288596	5.103050	3.653302	2.288484	-16.972081	3.330674	88.002120	74.595266	-14.381758	4.609623	-2.161165	-12.619781	-5.989824	54.211678	85.586165	-38.666051	-2.648566
3.101695	1.372739	-4.175337	84.207557	0.252073	0.977898	0.452595	6.171092	2.903527	8.527826	3.031736	0.052914	18.779427	-7.683967	0.000000	3.950907	-2.930061	-15.527787	0.461029	0.008046	23.056423	10.008458	0.000000	0.453717	0.132140	1.488026	0.842597	0.175746	1.581027	0.745411	0.321285	1.581027	0.518553	0.321285	1.302023	0.421321	0.269459	1.209021	0.259254	0.204685	1.116019	3.240853	1.494792	8.275953	0.000000	0.000000	28.295752	5.276785	4.911811	3.535798	-17.377343	4.904477	82.233292	77.136511	-14.451699	4.515719	-1.149415	-12.512047	-4.692771	55.396039	85.618233	-37.771362	-2.869651
3.118644	1.563869	-4.407333	84.798793	0.250220	0.977381	0.454799	6.750663	2.949582	7.764858	3.480944	0.060754	18.714651	-7.482999	0.000000	4.486195	-3.041619	-14.872434	0.474140	0.008275	23.233367	9.963047	0.000000	0.460503	0.179465	1.371823	0.855200	0.238688	1.457562	0.756560	0.436350	1.457562	0.526309	0.436350	1.200345	0.427623	0.365964	1.114606	0.263131	0.277991	1.028868	3.289327	2.030139	7.629670	0.000000	0.000000	28.302410	5.315406	6.046949	5.089848	-17.632267	7.213297	76.544076	79.997312	-14.212074	4.410857	0.216056	-12.371921	-2.757515	56.453762	85.738638	-36.860449	-2.930011
3.135593	1.776040	-4.631955	85.608217	0.248094	0.976856	0.457003	7.325529	2.981142	6.722693	3.955978	0.069045	18.697827	-7.228491	0.000000	5.060744	-3.149102	-13.983200	0.508902	0.008882	23.394178	9.882064	0.000000	0.465596	0.229368	1.220953	0.864659	0.305060	1.297262	0.764928	0.557686	1.297262	0.532130	0.557686	1.068334	0.432353	0.467728	0.992024	0.266042	0.355291	0.915715	3.325708	2.594659	6.790573	0.000000	0.000000	28.308346	5.282306	7.157935	6.896479	-17.647383	10.495189	70.971395	82.811159	-13.763294	4.362466	1.861254	-12.140201	-0.325365	57.308130	85.839945	-35.841988	-2.979470
3.152542	2.019285	-4.846967	86.611121	0.245725	0.976317	0.459122	7.891264	3.009178	5.390291	4.467623	0.077975	18.730222	-6.908310	0.000000	5.669152	-3.265992	-12.959371	0.588638	0.010274	23.534502	9.843459	0.000000	0.470371	0.282591	1.036627	0.873526	0.375846	1.101417	0.772773	0.687092	1.101417	0.537587	0.687092	0.907049	0.436787	0.576260	0.842260	0.268770	0.437734	0.777471	3.359813	3.196727	5.765410	0.000000	0.000000	28.314129	5.253965	8.335558	8.768464	-17.431877	14.233230	65.641616	85.332442	-12.852541	4.582163	3.684008	-11.720608	2.359056	57.935493	86.456657	-34.622459	-2.854287
